
<?xml version="1.0" encoding="utf-8"?>
<!-- Generator: Adobe Illustrator 28.0.0, SVG Export Plug-In . SVG Version: 6.00 Build 0)  -->
<svg version="1.1" baseProfile="tiny" id="katman_1"
     xmlns="http://www.w3.org/2000/svg" xmlns:xlink="http://www.w3.org/1999/xlink" x="0px" y="0px" viewBox="0 0 200 201.6"
     overflow="visible" xml:space="preserve">
<path fill="#FFFFFF" d="M197.1,60.8c-9.8-8.7-23.5-22.1-34.6-31.5l-0.7-0.4c-1.1-0.8-2.3-1.5-3.6-2l0,0C131.4,22.1,6.8-0.3,4.4,0
	C3.7,0.1,3,0.3,2.5,0.7L1.8,1.2C1.1,1.9,0.5,2.8,0.1,3.8L0,4.2v2.3v0.3c14,37.5,69.4,160.1,80.4,188.9c0.7,2,1.9,5.7,4.2,5.9h0.5
	c1.2,0,6.6-6.8,6.6-6.8S186.9,84.3,196.6,72.5c1.2-1.4,2.3-3,3.3-4.6c0.3-1.3,0.1-2.6-0.3-3.8C199,62.8,198.2,61.7,197.1,60.8
	L197.1,60.8z M116.1,73.7l40.6-32.3l23.9,21.1L116.1,73.7z M100.3,71.6l-69.9-55l113.2,20L100.3,71.6z M106.6,85.9l71.6-11.1
	l-81.8,94.5L106.6,85.9z M20.8,22.1L94.5,82l-10.7,87.5L20.8,22.1z"/>
</svg>
