
<?xml version="1.0" encoding="utf-8"?>
<!-- Generator: Adobe Illustrator 28.0.0, SVG Export Plug-In . SVG Version: 6.00 Build 0)  -->
<svg version="1.1" baseProfile="tiny" id="Layer_3" xmlns="http://www.w3.org/2000/svg" xmlns:xlink="http://www.w3.org/1999/xlink"
x="0px" y="0px" viewBox="0 0 200 200" overflow="visible" xml:space="preserve">
    <path fill="#FFFFFF" d="M100,200C44.9,200,0,155.1,0,100S44.9,0,100,0c36.5,0,70,19.9,87.7,51.8c2.2,4,0.7,9-3.3,11.2
c-4,2.2-9,0.7-11.2-3.3c-14.7-26.7-42.7-43.3-73.2-43.3C54,16.5,16.5,54,16.5,100S54,183.5,100,183.5c30.4,0,58.5-16.6,73.2-43.3
c2.2-4,7.2-5.5,11.2-3.3c4,2.2,5.5,7.2,3.3,11.2C170,180.1,136.5,200,100,200z"/>
</svg>
